<?xml version="1.0" encoding="utf-8"?>
<!-- Generator: Adobe Illustrator 19.0.1, SVG Export Plug-In . SVG Version: 6.00 Build 0)  -->
<svg version="1.1" id="crosshair" xmlns="http://www.w3.org/2000/svg" xmlns:xlink="http://www.w3.org/1999/xlink" x="0px" y="0px"
	 viewBox="0 0 128 128" style="enable-background:new 0 0 128 128;" xml:space="preserve">
<style type="text/css">
	.st0{display:none;fill:#212121;}
	.st1{fill:#212121;}
	.st2{display:none;}
	.st3{display:inline;fill:#212121;}
</style>
<g id="row4"  >
	<path id="crosshair:4_2_" class="st0" d="M64,128C28.7,128,0,99.3,0,64S28.7,0,64,0s64,28.7,64,64S99.3,128,64,128z M64,5.7
		C31.9,5.7,5.7,31.9,5.7,64s26.1,58.3,58.3,58.3s58.3-26.1,58.3-58.3S96.1,5.7,64,5.7z M64,83.6c-10.8,0-19.6-8.8-19.6-19.6
		S53.2,44.4,64,44.4S83.6,53.2,83.6,64S74.8,83.6,64,83.6z M64,48.2c-8.7,0-15.8,7.1-15.8,15.8S55.3,79.8,64,79.8S79.8,72.7,79.8,64
		S72.7,48.2,64,48.2z M64,69.2c2.8,0,5.2-2.3,5.2-5.2s-2.3-5.2-5.2-5.2c-2.8,0-5.2,2.3-5.2,5.2S61.2,69.2,64,69.2z"/>
	<path id="crosshair:3_2_" class="st0" d="M51.5,25.3v3.8h25v-3.8H51.5z M54.5,34.9v3.8h18.9v-3.8H54.5z M56.9,44.4v3.8h14.2v-3.8
		H56.9z M51.5,25.3v3.8h25v-3.8H51.5z M54.5,34.9v3.8h18.9v-3.8H54.5z M56.9,44.4v3.8h14.2v-3.8H56.9z M51.5,25.3v3.8h25v-3.8H51.5z
		 M54.5,34.9v3.8h18.9v-3.8H54.5z M56.9,44.4v3.8h14.2v-3.8H56.9z M64,0C28.7,0,0,28.7,0,64c0,35.3,28.7,64,64,64
		c35.3,0,64-28.7,64-64C128,28.7,99.3,0,64,0z M64,5.7c32.1,0,58.2,26.1,58.3,58.1H70.8c-0.8-3-3.6-5.2-6.8-5.2
		c-3.2,0-6,2.2-6.8,5.2H5.7C5.8,31.8,31.9,5.7,64,5.7z M5.8,67.6h51.4c0.6,2.4,2.5,4.2,4.9,4.9v49.7C32.1,121.3,7.7,97.5,5.8,67.6z
		 M65.9,122.2V72.6c2.4-0.7,4.2-2.5,4.9-4.9h51.3C120.3,97.5,95.9,121.3,65.9,122.2z"/>
	<path  id="crosshair:2_2_" class="st0" d="M44.6,43.3v10.7h1.9v-8.8h8.8v-1.9H44.6z M46.5,82.8v-8.8h-1.9v10.7h10.7v-1.9H46.5z
		 M72.4,43.3v1.9h8.8v8.8h1.9V43.3H72.4z M81.2,73.9v8.8h-8.8v1.9h10.7V73.9H81.2z M44.6,43.3v10.7h1.9v-8.8h8.8v-1.9H44.6z
		 M46.5,82.8v-8.8h-1.9v10.7h10.7v-1.9H46.5z M72.4,43.3v1.9h8.8v8.8h1.9V43.3H72.4z M81.2,73.9v8.8h-8.8v1.9h10.7V73.9H81.2z
		 M46.5,82.8v-8.8h-1.9v10.7h10.7v-1.9H46.5z M44.6,43.3v10.7h1.9v-8.8h8.8v-1.9H44.6z M81.2,73.9v8.8h-8.8v1.9h10.7V73.9H81.2z
		 M72.4,43.3v1.9h8.8v8.8h1.9V43.3H72.4z M64,0C28.7,0,0,28.7,0,64c0,35.3,28.7,64,64,64c35.3,0,64-28.7,64-64C128,28.7,99.3,0,64,0
		z M64.9,122.3V83.7H63v38.5C31.4,121.8,5.7,95.8,5.7,64h37.6v-1.9H5.8C6.7,31.2,32,6.2,63,5.7v36.6h1.9V5.7
		c31.1,0.5,56.3,25.4,57.3,56.4H84.7V64h37.6C122.3,95.8,96.6,121.8,64.9,122.3z M77,63V65H64.9v12H63V65H51V63h12V51h1.9V63H77z"/>
	<path id="crosshair:1_2_" class="st0" d="M64,0C28.7,0,0,28.7,0,64c0,35.3,28.7,64,64,64c35.3,0,64-28.7,64-64
		C128,28.7,99.3,0,64,0z M65.9,122.3v-11.9h-3.7v11.9c-30.7-1-55.5-25.8-56.5-56.5h11.9v-3.7H5.7c1-30.7,25.8-55.5,56.5-56.5v11.9
		h3.7V5.7c30.7,1,55.5,25.8,56.5,56.5h-10.4v3.7h10.4C121.4,96.6,96.6,121.4,65.9,122.3z M77,63.1v1.9H64.9V77h-1.9V64.9H51v-1.9
		h12.1V51h1.9v12.1H77z"/>
</g>
<g id="row3" >
	<path  id="crosshair:4_1_" class="st0" d="M123.9,62.2C123,30.6,97.4,5,65.8,4V0h-3.6v4C30.6,5,5,30.6,4,62.2H0v3.6h4
		c0.9,30.1,24,54.6,53.4,57.8h0.1c1.5,0.2,3.1,0.3,4.6,0.3v4.1h3.6v-4.1c1.6-0.1,3.1-0.2,4.6-0.3c0,0,0.1,0,0.1,0
		c29.4-3.2,52.5-27.7,53.4-57.8h4.1v-3.6H123.9z M62.2,114h-4.7v1.8h4.7v2.7c-28.7-0.9-51.9-24.1-52.8-52.8h4.4v4.9h1.8v-4.9h3.7
		C20.3,89,39,107.7,62.2,108.7V114z M62.2,78.1h-4.7v1.8h4.7v7.6h-4.7v1.8h4.7v7.6h-4.7v1.8h4.7v6.4C41,104.2,23.8,87,22.9,65.8h6.1
		v4.9h1.8v-4.9h7.8v4.9h1.8v-4.9h7.8v4.9H50v-4.9h12.2V78.1z M62.2,29.2h-4.7v1.8h4.7v7.8h-4.7v1.8h4.7v7.8h-4.7v1.8h4.7v12H50v-4.6
		h-1.8v4.6h-7.8v-4.6h-1.8v4.6h-7.8v-4.6h-1.8v4.6h-6.1C23.8,41,41,23.8,62.2,22.9V29.2z M62.2,14h-4.7v1.8h4.7v3.6
		C39,20.3,20.3,39,19.3,62.2h-3.7v-4.6h-1.8v4.6H9.4c0.9-28.7,24.1-51.9,52.8-52.8V14z M65.8,50.2h4.7v-1.8h-4.7v-7.8h4.7v-1.8h-4.7
		v-7.8h4.7v-1.8h-4.7v-6.2c21.3,0.9,38.4,18,39.3,39.3h-6.6v-4.6h-1.8v4.6h-7.6v-4.6h-1.8v4.6h-7.6v-4.6H78v4.6H65.8V50.2z
		 M65.8,98.6h4.7v-1.8h-4.7v-7.6h4.7v-1.8h-4.7v-7.6h4.7v-1.8h-4.7V65.8H78v4.9h1.8v-4.9h7.6v4.9h1.8v-4.9h7.6v4.9h1.8v-4.9h6.6
		c-0.9,21.3-18,38.4-39.3,39.3V98.6z M65.8,118.5v-2.7h4.7V114h-4.7v-5.4c23.2-0.9,41.9-19.6,42.9-42.9h5.2v4.9h1.8v-4.9h2.9
		C117.6,94.5,94.5,117.6,65.8,118.5z M115.7,62.2v-4.6h-1.8v4.6h-5.2C107.7,39,89,20.3,65.8,19.3v-3.6h4.7V14h-4.7V9.4
		c28.7,0.9,51.9,24.1,52.8,52.8H115.7z"/>
	<path id="crosshair:3_1_" class="st0" d="M64,56.8c-4,0-7.2,3.2-7.2,7.2c0,4,3.2,7.3,7.2,7.3c4,0,7.3-3.2,7.3-7.3
		C71.3,60,68,56.8,64,56.8z M64,67.4c-1.9,0-3.4-1.5-3.4-3.4c0-1.9,1.5-3.4,3.4-3.4c1.9,0,3.4,1.5,3.4,3.4
		C67.4,65.9,65.9,67.4,64,67.4z M64,56.8c-4,0-7.2,3.2-7.2,7.2c0,4,3.2,7.3,7.2,7.3c4,0,7.3-3.2,7.3-7.3C71.3,60,68,56.8,64,56.8z
		 M64,67.4c-1.9,0-3.4-1.5-3.4-3.4c0-1.9,1.5-3.4,3.4-3.4c1.9,0,3.4,1.5,3.4,3.4C67.4,65.9,65.9,67.4,64,67.4z M64,56.8
		c-4,0-7.2,3.2-7.2,7.2c0,4,3.2,7.3,7.2,7.3c4,0,7.3-3.2,7.3-7.3C71.3,60,68,56.8,64,56.8z M64,67.4c-1.9,0-3.4-1.5-3.4-3.4
		c0-1.9,1.5-3.4,3.4-3.4c1.9,0,3.4,1.5,3.4,3.4C67.4,65.9,65.9,67.4,64,67.4z M64,0C28.7,0,0,28.7,0,64c0,35.3,28.7,64,64,64
		c35.3,0,64-28.7,64-64C128,28.7,99.3,0,64,0z M66.9,122.2V96.2H65V72.5H63v23.7h-1.9v25.9C31.5,120.8,7.5,97,5.8,67.4h25.9v-2.1
		h22.8v-1.9H31.8v-1.7h-26C7,31.6,31.1,7.3,61.1,5.8v26H63v22.8H65V31.8h1.9v-26c30,1.5,54.2,25.8,55.3,55.9h-26v1.7H73.5v1.9h22.8
		v2.1h25.9C120.5,97,96.5,120.8,66.9,122.2z"/>
	<path id="crosshair:2_1_" class="st1" d="M81.3,63.1c-0.4-8.8-7.6-16-16.4-16.4V37h-1.8v9.7c-8.8,0.4-16,7.6-16.4,16.4h-9.7v1.8
		h9.7c0.4,8.8,7.6,16,16.4,16.4V91h1.8v-9.7c8.9-0.4,16-7.6,16.4-16.4h9.7v-1.8H81.3z M77.8,64.9c-0.4,6.9-6,12.5-12.9,12.9v-7.1
		h-1.8v7.1c-6.9-0.4-12.5-6-12.9-12.9h7.1v-1.8h-7.1c0.4-6.9,6-12.5,12.9-12.9v7.1h1.8v-7.1c6.9,0.4,12.5,6,12.9,12.9h-6.6v1.8H77.8
		z M117.2,62.2c-0.9-27.9-23.4-50.5-51.4-51.4V0h-3.5v10.8c-27.9,0.9-50.5,23.4-51.4,51.4H0v3.5h10.8c0.9,27.9,23.4,50.5,51.4,51.4
		V128h3.5v-10.8c28-0.9,50.5-23.4,51.4-51.4H128v-3.5H117.2z M64,111.9c-26.4,0-47.9-21.5-47.9-47.9S37.6,16.1,64,16.1
		c26.4,0,47.9,21.5,47.9,47.9S90.4,111.9,64,111.9z"/>
	<path id="crosshair:1_1_" class="st0" d="M64,128C28.7,128,0,99.3,0,64S28.7,0,64,0s64,28.7,64,64S99.3,128,64,128z M64,5.7
		C31.9,5.7,5.7,31.9,5.7,64s26.1,58.3,58.3,58.3s58.3-26.1,58.3-58.3S96.1,5.7,64,5.7z M64,78c7.7,0,14-6.3,14-14s-6.3-14-14-14
		s-14,6.3-14,14S56.3,78,64,78z M64,96c-17.7,0-32-14.4-32-32c0-17.7,14.4-32,32-32s32,14.4,32,32C96,81.7,81.7,96,64,96z M64,33.9
		c-16.6,0-30.1,13.5-30.1,30.1c0,16.6,13.5,30.1,30.1,30.1c16.6,0,30.1-13.5,30.1-30.1C94.1,47.4,80.6,33.9,64,33.9z M64,110.9
		c-25.8,0-46.9-21-46.9-46.9s21-46.9,46.9-46.9s46.9,21,46.9,46.9S89.8,110.9,64,110.9z M64,19c-24.8,0-45,20.2-45,45s20.2,45,45,45
		s45-20.2,45-45S88.8,19,64,19z"/>
</g>
<g id="row2" class="st2">
	<path id="crosshair:4" class="st3" d="M116.9,62.4c-0.8-27.9-23.4-50.5-51.3-51.3V0h-3.2v11.1c-27.9,0.8-50.5,23.4-51.3,51.3H0v3.2
		h11.1c0.8,27.9,23.4,50.5,51.3,51.3V128h3.2v-11.1c28-0.8,50.5-23.4,51.3-51.3H128v-3.2H116.9z M62.4,112.2
		c-25.3-0.8-45.8-21.3-46.6-46.6h46.6V112.2z M62.4,62.4H15.8c0.8-25.3,21.3-45.8,46.6-46.6V62.4z M65.6,112.2V65.6h46.6
		C111.4,90.9,90.9,111.4,65.6,112.2z M65.6,62.4V15.8c25.3,0.8,45.8,21.3,46.6,46.6H65.6z M65.6,51.7v1.6c4.7,0.7,8.4,4.4,9.1,9.1
		h1.6C75.6,56.9,71.2,52.4,65.6,51.7z M74.7,65.6c-0.7,4.7-4.4,8.4-9.1,9.1v1.6c5.6-0.7,10-5.1,10.7-10.7H74.7z M53.3,65.6h-1.6
		c0.7,5.6,5.1,10,10.7,10.7v-1.6C57.7,74,54,70.3,53.3,65.6z M51.7,62.4h1.6c0.7-4.7,4.4-8.4,9.1-9.1v-1.6
		C56.9,52.4,52.4,56.9,51.7,62.4z M65.6,51.7v1.6c4.7,0.7,8.4,4.4,9.1,9.1h1.6C75.6,56.9,71.2,52.4,65.6,51.7z M74.7,65.6
		c-0.7,4.7-4.4,8.4-9.1,9.1v1.6c5.6-0.7,10-5.1,10.7-10.7H74.7z M53.3,65.6h-1.6c0.7,5.6,5.1,10,10.7,10.7v-1.6
		C57.7,74,54,70.3,53.3,65.6z M51.7,62.4h1.6c0.7-4.7,4.4-8.4,9.1-9.1v-1.6C56.9,52.4,52.4,56.9,51.7,62.4z M65.6,51.7v1.6
		c4.7,0.7,8.4,4.4,9.1,9.1h1.6C75.6,56.9,71.2,52.4,65.6,51.7z M65.6,51.7v1.6c4.7,0.7,8.4,4.4,9.1,9.1h1.6
		C75.6,56.9,71.2,52.4,65.6,51.7z M65.6,51.7v1.6c4.7,0.7,8.4,4.4,9.1,9.1h1.6C75.6,56.9,71.2,52.4,65.6,51.7z M65.6,51.7v1.6
		c4.7,0.7,8.4,4.4,9.1,9.1h1.6C75.6,56.9,71.2,52.4,65.6,51.7z M65.6,51.7v1.6c4.7,0.7,8.4,4.4,9.1,9.1h1.6
		C75.6,56.9,71.2,52.4,65.6,51.7z M74.7,65.6c-0.7,4.7-4.4,8.4-9.1,9.1v1.6c5.6-0.7,10-5.1,10.7-10.7H74.7z M65.6,51.7v1.6
		c4.7,0.7,8.4,4.4,9.1,9.1h1.6C75.6,56.9,71.2,52.4,65.6,51.7z M74.7,65.6c-0.7,4.7-4.4,8.4-9.1,9.1v1.6c5.6-0.7,10-5.1,10.7-10.7
		H74.7z M53.3,65.6h-1.6c0.7,5.6,5.1,10,10.7,10.7v-1.6C57.7,74,54,70.3,53.3,65.6z M51.7,62.4h1.6c0.7-4.7,4.4-8.4,9.1-9.1v-1.6
		C56.9,52.4,52.4,56.9,51.7,62.4z M51.7,62.4h1.6c0.7-4.7,4.4-8.4,9.1-9.1v-1.6C56.9,52.4,52.4,56.9,51.7,62.4z M51.7,62.4h1.6
		c0.7-4.7,4.4-8.4,9.1-9.1v-1.6C56.9,52.4,52.4,56.9,51.7,62.4z M51.7,62.4h1.6c0.7-4.7,4.4-8.4,9.1-9.1v-1.6
		C56.9,52.4,52.4,56.9,51.7,62.4z M51.7,62.4h1.6c0.7-4.7,4.4-8.4,9.1-9.1v-1.6C56.9,52.4,52.4,56.9,51.7,62.4z M51.7,62.4h1.6
		c0.7-4.7,4.4-8.4,9.1-9.1v-1.6C56.9,52.4,52.4,56.9,51.7,62.4z"/>
	<path id="crosshair:3" class="st3" d="M64,58.3c-3.2,0-5.7,2.6-5.7,5.7c0,3.2,2.6,5.7,5.7,5.7c3.2,0,5.7-2.6,5.7-5.7
		C69.7,60.8,67.2,58.3,64,58.3z M64,58.3c-3.2,0-5.7,2.6-5.7,5.7c0,3.2,2.6,5.7,5.7,5.7c3.2,0,5.7-2.6,5.7-5.7
		C69.7,60.8,67.2,58.3,64,58.3z M64,58.3c-3.2,0-5.7,2.6-5.7,5.7c0,3.2,2.6,5.7,5.7,5.7c3.2,0,5.7-2.6,5.7-5.7
		C69.7,60.8,67.2,58.3,64,58.3z M64,58.3c-3.2,0-5.7,2.6-5.7,5.7c0,3.2,2.6,5.7,5.7,5.7c3.2,0,5.7-2.6,5.7-5.7
		C69.7,60.8,67.2,58.3,64,58.3z M64,58.3c-3.2,0-5.7,2.6-5.7,5.7c0,3.2,2.6,5.7,5.7,5.7c3.2,0,5.7-2.6,5.7-5.7
		C69.7,60.8,67.2,58.3,64,58.3z M116.9,62.4c-0.4-13.4-5.8-25.6-14.4-34.7l7.9-7.9l-2.2-2.2l-7.9,7.9c-9.1-8.6-21.3-14-34.7-14.4V0
		h-3.2v11.1C49,11.5,36.8,16.9,27.7,25.5l-7.9-7.9l-2.2,2.2l7.9,7.9c-8.6,9.1-14,21.3-14.4,34.7H0v3.2h11.1
		c0.4,13.4,5.8,25.6,14.4,34.7l-7.9,7.9l2.2,2.2l7.9-7.9c9.1,8.6,21.3,14,34.7,14.4V128h3.2v-11.1c13.4-0.4,25.6-5.8,34.7-14.4
		l7.9,7.9l2.2-2.2l-7.9-7.9c8.6-9.1,14-21.3,14.4-34.7H128v-3.2H116.9z M65.6,15.8c12.1,0.4,23.1,5.3,31.4,13L84,41.8
		c-4.9-4.5-11.4-7.3-18.4-7.7V15.8z M62.4,15.8v18.3c-7.1,0.4-13.5,3.2-18.4,7.7L31.1,28.8C39.3,21.1,50.3,16.2,62.4,15.8z
		 M28.8,31.1L41.8,44c-4.4,4.9-7.3,11.4-7.6,18.4H15.8C16.2,50.3,21.1,39.3,28.8,31.1z M15.8,65.6h18.3c0.4,7.1,3.2,13.5,7.7,18.4
		L28.8,96.9C21.1,88.7,16.2,77.7,15.8,65.6z M62.4,112.2c-12.1-0.4-23.1-5.3-31.3-13L44,86.2c4.9,4.5,11.3,7.3,18.4,7.7V112.2z
		 M64,90.8c-14.8,0-26.8-12-26.8-26.8c0-14.8,12-26.8,26.8-26.8c14.8,0,26.8,12,26.8,26.8C90.8,78.8,78.8,90.8,64,90.8z M65.6,112.2
		V93.9c7.1-0.4,13.5-3.2,18.4-7.7l12.9,12.9C88.7,106.9,77.7,111.8,65.6,112.2z M99.2,96.9L86.2,84c4.5-4.9,7.3-11.4,7.7-18.4h18.3
		C111.8,77.7,106.9,88.7,99.2,96.9z M93.9,62.4c-0.4-7.1-3.2-13.5-7.6-18.4l12.9-12.9c7.7,8.3,12.6,19.3,13,31.4H93.9z"/>
	<path id="crosshair:2" class="st3" d="M64,60.2c-2.1,0-3.8,1.7-3.8,3.8c0,2.1,1.7,3.8,3.8,3.8c2.1,0,3.8-1.7,3.8-3.8
		C67.8,61.9,66.1,60.2,64,60.2z M64,60.2c-2.1,0-3.8,1.7-3.8,3.8c0,2.1,1.7,3.8,3.8,3.8c2.1,0,3.8-1.7,3.8-3.8
		C67.8,61.9,66.1,60.2,64,60.2z M64,60.2c-2.1,0-3.8,1.7-3.8,3.8c0,2.1,1.7,3.8,3.8,3.8c2.1,0,3.8-1.7,3.8-3.8
		C67.8,61.9,66.1,60.2,64,60.2z M64,60.2c-2.1,0-3.8,1.7-3.8,3.8c0,2.1,1.7,3.8,3.8,3.8c2.1,0,3.8-1.7,3.8-3.8
		C67.8,61.9,66.1,60.2,64,60.2z M64,60.2c-2.1,0-3.8,1.7-3.8,3.8c0,2.1,1.7,3.8,3.8,3.8c2.1,0,3.8-1.7,3.8-3.8
		C67.8,61.9,66.1,60.2,64,60.2z M116.9,62.4c-0.8-27.9-23.4-50.5-51.3-51.3V0h-3.2v11.1c-27.9,0.8-50.5,23.4-51.3,51.3H0v3.2h11.1
		c0.8,27.9,23.4,50.5,51.3,51.3V128h3.2v-11.1c28-0.8,50.5-23.4,51.3-51.3H128v-3.2H116.9z M62.4,15.8v8.8
		c-20.5,0.8-37,17.3-37.8,37.8h-8.8C16.6,37.1,37.1,16.6,62.4,15.8z M62.4,112.2c-25.3-0.8-45.8-21.3-46.6-46.6h8.8
		c0.8,20.5,17.3,37,37.8,37.8V112.2z M62.4,75.7v24.5c-18.8-0.8-33.9-15.9-34.7-34.7h24.5v-3.2H27.8c0.8-18.8,15.9-33.9,34.7-34.7
		v24.5h3.2V27.8c18.8,0.8,33.9,15.9,34.7,34.7H75.7v3.2h24.5c-0.8,18.8-15.9,33.9-34.7,34.7V75.7H62.4z M65.6,112.2v-8.8
		c20.5-0.8,37-17.3,37.8-37.8h8.7C111.4,90.9,90.9,111.4,65.6,112.2z M103.4,62.4c-0.8-20.5-17.3-37-37.8-37.8v-8.8
		c25.3,0.8,45.8,21.3,46.6,46.6H103.4z"/>
	<path id="crosshair:1" class="st3" d="M114.7,13.3v40.9h-5.5V18.8H73.9v-5.5H114.7z M109.2,73.9v35.4H73.9v5.5h40.9V73.9H109.2z
		 M18.8,109.3V73.9h-5.5v40.9h40.9v-5.5H18.8z M13.3,13.3v40.9h5.5V18.8h35.4v-5.5H13.3z M65.8,85.7h-3.7V128h3.7V85.7z M65.8,0
		h-3.7v42.3h3.7V0z M128,62.2H85.7v3.7H128V62.2z M42.3,62.2H0v3.7h42.3V62.2z"/>
</g>
<g id="row1" class="st2">
	<path id="crosshair:4_3_" class="st3" d="M111.5,21.2l-4.1,4.1c8.8,9.9,14.3,22.7,14.7,36.9H79.2c-0.9-6.9-6.3-12.4-13.3-13.3V5.8
		c14.1,0.5,27,6,36.9,14.7l4.1-4.1C95.5,6.2,80.4,0,64,0S32.5,6.2,21.2,16.5l4.1,4.1C35.1,11.7,48,6.2,62.1,5.8v43.1
		c-6.9,0.9-12.4,6.4-13.3,13.3H5.8c0.5-14.1,6-27,14.7-36.9l-4.1-4.1C6.2,32.5,0,47.6,0,64s6.2,31.5,16.5,42.8l4.1-4.1
		C11.7,92.9,6.2,80,5.8,65.9h43.1c0.9,6.9,6.4,12.4,13.3,13.3v43.1c-14.1-0.5-27-6-36.9-14.7l-4.1,4.1C32.5,121.8,47.6,128,64,128
		s31.5-6.2,42.8-16.5l-4.1-4.1c-9.9,8.8-22.7,14.3-36.9,14.7V79.2c6.9-0.9,12.4-6.4,13.3-13.3h43.1c-0.5,14.1-6,27-14.7,36.9
		l4.1,4.1C121.8,95.5,128,80.4,128,64S121.8,32.5,111.5,21.2z M62.1,77.2c-5.8-0.8-10.5-5.5-11.3-11.3h11.3V77.2z M62.1,62.1H50.8
		c0.8-5.8,5.5-10.5,11.3-11.3V62.1z M65.9,77.2V65.9h11.3C76.4,71.8,71.8,76.4,65.9,77.2z M65.9,62.1V50.8
		c5.8,0.8,10.5,5.5,11.3,11.3H65.9z"/>
	<path id="crosshair:3_4_" class="st3" d="M78.5,5.8H49.5V0h29.1V5.8z M78.5,122.2H49.5v5.8h29.1V122.2z M128,49.5h-5.8v29.1h5.8
		V49.5z M5.8,49.5H0v29.1h5.8V49.5z M65.9,5.8h-3.9v32h3.9V5.8z M65.9,91.2h-3.9v32h3.9V91.2z M122.7,62.5h-32v3.9h32V62.5z
		 M37.3,62.5h-32v3.9h32V62.5z M75.2,64.5c0-6.1-5-11.2-11.2-11.2s-11.2,5-11.2,11.2c0,6.1,5,11.2,11.2,11.2S75.2,70.6,75.2,64.5z
		 M71.3,64.5c0,4-3.3,7.3-7.3,7.3s-7.3-3.3-7.3-7.3c0-4,3.3-7.3,7.3-7.3S71.3,60.5,71.3,64.5z"/>
	<path id="crosshair:2_4_" class="st3" d="M79.7,0v6.1c20.4,5.5,36.6,21.7,42.2,42.1h6.1C122.1,24.5,103.4,5.8,79.7,0z M121.9,79.7
		c-5.5,20.5-21.7,36.6-42.2,42.2v6.1c23.7-5.8,42.5-24.5,48.3-48.3H121.9z M6.1,79.7H0c5.8,23.7,24.5,42.5,48.3,48.3v-6.1
		C27.8,116.3,11.6,100.2,6.1,79.7z M0,48.2h6.1c5.6-20.4,21.7-36.6,42.2-42.1V0C24.5,5.8,5.8,24.5,0,48.2z M66.9,128H63V73.3h3.9
		V128z M66.9,54.7H63V0h3.9V54.7z M128,67.1H73.3v-3.9H128V67.1z M54.7,67.1H0v-3.9h54.7V67.1z"/>
	<path id="crosshair:1_3_" class="st3" d="M64,59.4c-2.5,0-4.6,2.1-4.6,4.6c0,2.6,2.1,4.6,4.6,4.6c2.6,0,4.6-2.1,4.6-4.6
		C68.6,61.5,66.6,59.4,64,59.4z M64,59.4c-2.5,0-4.6,2.1-4.6,4.6c0,2.6,2.1,4.6,4.6,4.6c2.6,0,4.6-2.1,4.6-4.6
		C68.6,61.5,66.6,59.4,64,59.4z M64,59.4c-2.5,0-4.6,2.1-4.6,4.6c0,2.6,2.1,4.6,4.6,4.6c2.6,0,4.6-2.1,4.6-4.6
		C68.6,61.5,66.6,59.4,64,59.4z M64,0C28.7,0,0,28.7,0,64c0,35.3,28.7,64,64,64c35.3,0,64-28.7,64-64C128,28.7,99.3,0,64,0z
		 M65.9,122.2v-4.7h4.8v-1.9h-4.8v-13.4h4.8v-1.9h-4.8V86.9h4.8V85h-4.8v-9.8h-3.8V85h-4.8v1.9h4.8v13.4h-4.8v1.9h4.8v13.4h-4.8v1.9
		h4.8v4.7c-30.6-1-55.3-25.7-56.3-56.3h4.7v4.7h1.9v-4.7h13.4v4.7h1.9v-4.7h13.4v4.7H43v-4.7h9.8v-3.8H43v-4.8h-1.9v4.8H27.7v-4.9
		h-1.9v4.9H12.4v-4.9h-1.9v4.9H5.8c1-30.6,25.7-55.3,56.3-56.3v4.7h-4.8v1.9h4.8v13.4h-4.8v1.9h4.8v13.4h-4.8V43h4.8v9.8h3.8V43h4.8
		v-1.9h-4.8V27.7h4.8v-1.9h-4.8V12.4h4.8v-1.9h-4.8V5.8c30.6,1,55.3,25.7,56.3,56.3h-4.7v-4.7h-1.9v4.7h-13.4v-4.7h-1.9v4.7H86.9
		v-4.7H85v4.7h-9.8v3.8H85v4.8h1.9v-4.8h13.4v4.9h1.9v-4.9h13.4v4.9h1.9v-4.9h4.7C121.3,96.5,96.5,121.3,65.9,122.2z"/>
</g>
</svg>
